<svg xmlns="http://www.w3.org/2000/svg" xmlns:xlink="http://www.w3.org/1999/xlink" width="500" zoomAndPan="magnify" viewBox="0 0 375 374.999991" height="500" preserveAspectRatio="xMidYMid meet" version="1.0"><defs><g/><clipPath id="637291fda0"><path d="M 54.363281 54.363281 L 320.636719 54.363281 L 320.636719 320.636719 L 54.363281 320.636719 Z M 54.363281 54.363281 " clip-rule="nonzero"/></clipPath><clipPath id="047d575e49"><path d="M 187.5 54.363281 C 113.972656 54.363281 54.363281 113.972656 54.363281 187.5 C 54.363281 261.027344 113.972656 320.636719 187.5 320.636719 C 261.027344 320.636719 320.636719 261.027344 320.636719 187.5 C 320.636719 113.972656 261.027344 54.363281 187.5 54.363281 " clip-rule="nonzero"/></clipPath><clipPath id="822bc8c008"><path d="M 69.902344 69.902344 L 305.097656 69.902344 L 305.097656 305.097656 L 69.902344 305.097656 Z M 69.902344 69.902344 " clip-rule="nonzero"/></clipPath><clipPath id="417945ab66"><path d="M 187.5 69.902344 C 122.554688 69.902344 69.902344 122.554688 69.902344 187.5 C 69.902344 252.445312 122.554688 305.097656 187.5 305.097656 C 252.445312 305.097656 305.097656 252.445312 305.097656 187.5 C 305.097656 122.554688 252.445312 69.902344 187.5 69.902344 " clip-rule="nonzero"/></clipPath><clipPath id="9ed598c682"><path d="M 69.902344 69.902344 L 305.402344 69.902344 L 305.402344 305.402344 L 69.902344 305.402344 Z M 69.902344 69.902344 " clip-rule="nonzero"/></clipPath><clipPath id="eb54dc843d"><path d="M 187.652344 69.902344 C 122.621094 69.902344 69.902344 122.621094 69.902344 187.652344 C 69.902344 252.683594 122.621094 305.402344 187.652344 305.402344 C 252.683594 305.402344 305.402344 252.683594 305.402344 187.652344 C 305.402344 122.621094 252.683594 69.902344 187.652344 69.902344 " clip-rule="nonzero"/></clipPath><clipPath id="ed24695f57"><path d="M 108.839844 108.839844 L 266.339844 108.839844 L 266.339844 266.339844 L 108.839844 266.339844 Z M 108.839844 108.839844 " clip-rule="nonzero"/></clipPath><clipPath id="b98219ee7f"><path d="M 187.589844 108.839844 C 144.097656 108.839844 108.839844 144.097656 108.839844 187.589844 C 108.839844 231.082031 144.097656 266.339844 187.589844 266.339844 C 231.082031 266.339844 266.339844 231.082031 266.339844 187.589844 C 266.339844 144.097656 231.082031 108.839844 187.589844 108.839844 " clip-rule="nonzero"/></clipPath><clipPath id="fbaa4c6db8"><path d="M 113 214 L 162 214 L 162 261 L 113 261 Z M 113 214 " clip-rule="nonzero"/></clipPath><clipPath id="5ab2e81425"><path d="M 127.269531 214.289062 L 163.15625 245.34375 L 148.203125 262.625 L 112.316406 231.566406 Z M 127.269531 214.289062 " clip-rule="nonzero"/></clipPath><clipPath id="d646e47c5d"><path d="M 127.269531 214.289062 L 162.078125 244.410156 L 147.785156 260.921875 L 112.980469 230.800781 Z M 127.269531 214.289062 " clip-rule="nonzero"/></clipPath><clipPath id="1d68d736af"><path d="M 215 118 L 262 118 L 262 162 L 215 162 Z M 215 118 " clip-rule="nonzero"/></clipPath><clipPath id="4abe038094"><path d="M 215.675781 136.363281 L 229.800781 118.402344 L 262.960938 144.480469 L 248.835938 162.441406 Z M 215.675781 136.363281 " clip-rule="nonzero"/></clipPath><clipPath id="68e860de91"><path d="M 215.675781 136.363281 L 229.664062 118.578125 L 262.019531 144.027344 L 248.03125 161.8125 Z M 215.675781 136.363281 " clip-rule="nonzero"/></clipPath></defs><rect x="-37.5" width="450" fill="#ffffff" y="-37.499999" height="449.999989" fill-opacity="1"/><rect x="-37.5" width="450" fill="#ffffff" y="-37.499999" height="449.999989" fill-opacity="1"/><g clip-path="url(#637291fda0)"><g clip-path="url(#047d575e49)"><path fill="#72211d" d="M 54.363281 54.363281 L 320.636719 54.363281 L 320.636719 320.636719 L 54.363281 320.636719 Z M 54.363281 54.363281 " fill-opacity="1" fill-rule="nonzero"/></g></g><g clip-path="url(#822bc8c008)"><g clip-path="url(#417945ab66)"><path fill="#72211d" d="M 69.902344 69.902344 L 305.097656 69.902344 L 305.097656 305.097656 L 69.902344 305.097656 Z M 69.902344 69.902344 " fill-opacity="1" fill-rule="nonzero"/></g></g><g clip-path="url(#9ed598c682)"><g clip-path="url(#eb54dc843d)"><path stroke-linecap="butt" transform="matrix(0.751009, 0, 0, 0.751009, 69.902842, 69.902808)" fill="none" stroke-linejoin="miter" d="M 156.788407 -0.000618448 C 70.196567 -0.000618448 -0.000662788 70.196611 -0.000662788 156.788452 C -0.000662788 243.380292 70.196567 313.577522 156.788407 313.577522 C 243.380248 313.577522 313.577477 243.380292 313.577477 156.788452 C 313.577477 70.196611 243.380248 -0.000618448 156.788407 -0.000618448 " stroke="#ffffff" stroke-width="2" stroke-opacity="1" stroke-miterlimit="4"/></g></g><g clip-path="url(#ed24695f57)"><g clip-path="url(#b98219ee7f)"><path stroke-linecap="butt" transform="matrix(0.750894, 0, 0, 0.750894, 108.841329, 108.841399)" fill="none" stroke-linejoin="miter" d="M 104.873041 -0.00207153 C 46.952482 -0.00207153 -0.00197845 46.952389 -0.00197845 104.872948 C -0.00197845 162.793507 46.952482 209.747967 104.873041 209.747967 C 162.7936 209.747967 209.74806 162.793507 209.74806 104.872948 C 209.74806 46.952389 162.7936 -0.00207153 104.873041 -0.00207153 " stroke="#ffffff" stroke-width="2" stroke-opacity="1" stroke-miterlimit="4"/></g></g><g fill="#ffffff" fill-opacity="1"><g transform="translate(102.376989, 247.76937)"><g><path d="M 14.269531 7.660156 L 14.484375 7.492188 L 10.183594 1.925781 L 9.886719 3.097656 C 11.238281 3.902344 12.339844 5.15625 12.804688 5.761719 L 13.179688 6.246094 C 9.941406 8.535156 6.941406 8.597656 5.082031 6.1875 C 3.023438 3.527344 4.410156 0.203125 7.339844 -2.0625 C 10.21875 -4.285156 13.710938 -4.601562 15.550781 -2.21875 C 16.878906 -0.5 16.226562 1.488281 14.910156 3.148438 L 16.324219 4.226562 C 17.378906 1.953125 17.386719 -0.289062 15.765625 -2.386719 C 13.460938 -5.371094 9.40625 -5.976562 6.136719 -3.453125 C 2.871094 -0.929688 1.921875 3.046875 4.355469 6.191406 C 6.222656 8.613281 8.789062 8.847656 11.621094 7.453125 L 10.921875 7.992188 C 9.992188 8.710938 9.175781 9.320312 7.832031 10.140625 L 8.289062 10.734375 C 9.425781 9.640625 10.222656 9.003906 11.148438 8.289062 L 13.410156 6.542969 Z M 14.269531 7.660156 "/></g></g></g><g fill="#ffffff" fill-opacity="1"><g transform="translate(116.058471, 264.209649)"><g><path d="M 8.601562 5.148438 L 13.894531 -5.882812 L 12.390625 -7.207031 C 12.230469 -6.847656 12.109375 -6.707031 11.808594 -6.496094 L 2.230469 -0.324219 C 1.675781 0.0273438 1.414062 0.246094 0.636719 0.5625 L 1.007812 0.886719 C 1.542969 0.382812 1.878906 0.207031 2.445312 -0.15625 L 5.257812 -1.960938 L 8.675781 1.050781 L 7.273438 3.980469 C 6.945312 4.664062 6.820312 4.984375 6.339844 5.582031 L 7.933594 6.984375 C 8.117188 6.261719 8.25 5.882812 8.601562 5.148438 Z M 5.488281 -2.121094 L 12.300781 -6.515625 L 8.804688 0.800781 Z M 5.488281 -2.121094 "/></g></g></g><g fill="#ffffff" fill-opacity="1"><g transform="translate(129.623932, 275.416325)"><g><path d="M 2.710938 -3.097656 C 1.972656 0.300781 3.058594 2.289062 5.097656 3.550781 C 6.863281 4.636719 8.917969 4.609375 10.113281 2.671875 C 11.214844 0.894531 10.480469 -0.796875 9.140625 -4.125 C 8.160156 -6.546875 7.640625 -7.585938 8.335938 -8.714844 C 8.925781 -9.667969 10.058594 -9.847656 11.300781 -9.082031 C 13.152344 -7.9375 13 -6.011719 12.402344 -4.425781 L 13.824219 -4.144531 C 13.9375 -6.554688 13.222656 -8.214844 11.515625 -9.265625 C 9.839844 -10.304688 8.117188 -10.230469 7.1875 -8.726562 C 6.300781 -7.292969 6.757812 -6.09375 7.878906 -3.28125 C 9.03125 -0.292969 9.792969 1.351562 9.003906 2.625 C 8.101562 4.085938 6.660156 4.191406 5.328125 3.371094 C 3.421875 2.191406 3.023438 -0.371094 4.21875 -2.949219 Z M 2.710938 -3.097656 "/></g></g></g><g fill="#ffffff" fill-opacity="1"><g transform="translate(144.226281, 283.857483)"><g><path d="M 15.253906 -8.484375 L 5.425781 -12.472656 L 5.761719 -11.308594 C 7.332031 -11.292969 8.582031 -10.898438 9.277344 -10.617188 L 9.464844 -10.539062 L 5.714844 -1.292969 C 5.25 -0.144531 4.960938 0.472656 4.332031 1.757812 L 6.125 2.484375 C 6.566406 1.125 6.792969 0.480469 7.257812 -0.667969 L 11.007812 -9.914062 L 11.199219 -9.835938 C 11.890625 -9.554688 13.066406 -8.96875 14.203125 -7.882812 Z M 15.253906 -8.484375 "/></g></g></g><g fill="#ffffff" fill-opacity="1"><g transform="translate(160.630722, 289.98735)"><g><path d="M 9.527344 -1.304688 C 9.148438 -3.46875 8.09375 -4.488281 6.699219 -5.058594 C 9.183594 -4.726562 11.292969 -5.171875 11.816406 -7.683594 C 12.421875 -10.578125 9.988281 -11.800781 7.027344 -12.421875 L 3.949219 -13.0625 C 3.757812 -11.644531 3.648438 -10.972656 3.394531 -9.757812 L 1.984375 -3.003906 C 1.730469 -1.792969 1.554688 -1.132812 1.164062 0.242188 L 3.0625 0.640625 C 3.253906 -0.777344 3.359375 -1.449219 3.613281 -2.664062 L 4.214844 -5.542969 L 4.8125 -5.417969 C 6.527344 -5.058594 7.453125 -4.34375 7.839844 -1.539062 C 8.167969 0.960938 9.265625 1.9375 12.011719 2.511719 L 12.0625 2.261719 C 10.515625 1.941406 9.910156 1.101562 9.527344 -1.304688 Z M 4.269531 -5.808594 L 5.65625 -12.429688 L 6.953125 -12.15625 C 8.898438 -11.75 10.675781 -10.683594 10.121094 -8.039062 C 9.566406 -5.394531 7.515625 -5.128906 5.570312 -5.535156 Z M 4.269531 -5.808594 "/></g></g></g><g fill="#ffffff" fill-opacity="1"><g transform="translate(179.582605, 293.502091)"><g><path d="M 8.617188 0.3125 C 12.96875 0.296875 16.222656 -2.671875 16.207031 -6.851562 C 16.195312 -11.015625 12.921875 -13.976562 8.570312 -13.964844 C 4.21875 -13.949219 0.984375 -10.964844 0.996094 -6.800781 C 1.011719 -2.621094 4.265625 0.324219 8.617188 0.3125 Z M 8.617188 0.0390625 C 5.015625 0.0507812 2.84375 -3.222656 2.832031 -6.808594 C 2.820312 -10.375 4.96875 -13.679688 8.570312 -13.691406 C 12.175781 -13.703125 14.359375 -10.414062 14.371094 -6.84375 C 14.382812 -3.257812 12.21875 0.0273438 8.617188 0.0390625 Z M 8.617188 0.0390625 "/></g></g></g><g fill="#ffffff" fill-opacity="1"><g transform="translate(203.145055, 292.52397)"><g><path d="M 8.914062 -12.394531 C 8.65625 -13.609375 8.542969 -14.28125 8.34375 -15.699219 L 7.847656 -15.589844 C 8.261719 -14.21875 8.421875 -13.558594 8.683594 -12.347656 L 10.695312 -2.972656 L 0.1875 -13.945312 L -1.691406 -13.542969 C -1.292969 -12.167969 -1.117188 -11.511719 -0.855469 -10.296875 L 0.59375 -3.550781 C 0.855469 -2.339844 0.964844 -1.667969 1.164062 -0.25 L 1.660156 -0.355469 C 1.261719 -1.730469 1.085938 -2.390625 0.824219 -3.601562 L -1.1875 -12.972656 L 9.320312 -2 L 11.199219 -2.40625 C 10.800781 -3.777344 10.625 -4.4375 10.363281 -5.648438 Z M 8.914062 -12.394531 "/></g></g></g><g fill="#ffffff" fill-opacity="1"><g transform="translate(221.642597, 288.117555)"><g><path d="M 8.007812 -3.203125 C 11.980469 -4.972656 13.753906 -9.003906 12.050781 -12.824219 C 10.355469 -16.625 6.160156 -18.011719 2.1875 -16.238281 C -1.785156 -14.464844 -3.535156 -10.425781 -1.839844 -6.625 C -0.136719 -2.804688 4.035156 -1.429688 8.007812 -3.203125 Z M 7.894531 -3.449219 C 4.605469 -1.980469 1.296875 -4.097656 -0.164062 -7.371094 C -1.617188 -10.628906 -0.992188 -14.519531 2.300781 -15.988281 C 5.589844 -17.457031 8.921875 -15.332031 10.375 -12.074219 C 11.835938 -8.800781 11.1875 -4.917969 7.894531 -3.449219 Z M 7.894531 -3.449219 "/></g></g></g><g fill="#ffffff" fill-opacity="1"><g transform="translate(242.939599, 277.756111)"><g><path d="M 0.949219 -0.71875 L 1.382812 -1.046875 C 0.425781 -2.113281 0.00390625 -2.644531 -0.742188 -3.632812 L -6.398438 -11.121094 L 6.171875 -4.238281 L 6.414062 -4.421875 L 2.96875 -18.261719 L 8.652344 -10.734375 C 9.402344 -9.746094 9.796875 -9.191406 10.578125 -7.992188 L 12.121094 -9.160156 C 11.167969 -10.226562 10.742188 -10.757812 9.996094 -11.75 L 5.835938 -17.253906 C 5.089844 -18.242188 4.691406 -18.796875 3.925781 -20.007812 L 2.53125 -18.953125 L 5.527344 -6.582031 L -5.753906 -12.691406 L -7.246094 -11.566406 C -6.304688 -10.488281 -5.867188 -9.964844 -5.121094 -8.976562 L -0.960938 -3.46875 C -0.210938 -2.480469 0.171875 -1.917969 0.949219 -0.71875 Z M 0.949219 -0.71875 "/></g></g></g><g fill="#ffffff" fill-opacity="1"><g transform="translate(260.287002, 263.422199)"><g><path d="M -9.011719 -10.25 C -7.910156 -9.339844 -7.394531 -8.894531 -6.496094 -8.035156 L -1.503906 -3.269531 C -0.609375 -2.414062 -0.140625 -1.921875 0.820312 -0.859375 L 2.160156 -2.261719 C 1.058594 -3.171875 0.542969 -3.617188 -0.355469 -4.476562 L -5.347656 -9.242188 C -6.242188 -10.097656 -6.710938 -10.589844 -7.671875 -11.652344 Z M -9.011719 -10.25 "/></g></g></g><g fill="#ffffff" fill-opacity="1"><g transform="translate(267.281773, 255.805302)"><g><path d="M -10.261719 -8.996094 C -9.03125 -8.261719 -8.472656 -7.875 -7.472656 -7.140625 L -1.90625 -3.0625 C -0.90625 -2.328125 -0.367188 -1.914062 0.703125 -0.960938 L 5.425781 -7.402344 L 4.976562 -8.339844 C 4.304688 -6.476562 3.6875 -5.492188 2.695312 -4.136719 L 1.570312 -2.601562 L -3.914062 -6.621094 L -3.269531 -7.496094 C -2.738281 -8.222656 -2.195312 -8.964844 -1.125 -10.136719 L -1.617188 -10.5 C -2.414062 -9.125 -2.957031 -8.382812 -3.488281 -7.65625 L -4.132812 -6.78125 L -8.957031 -10.316406 L -8.042969 -11.5625 C -7.589844 -12.179688 -6.523438 -13.464844 -5.203125 -14.289062 L -5.519531 -15.46875 Z M -10.261719 -8.996094 "/></g></g></g><g clip-path="url(#fbaa4c6db8)"><g clip-path="url(#5ab2e81425)"><g clip-path="url(#d646e47c5d)"><path fill="#72211d" d="M 127.269531 214.289062 L 161.828125 244.195312 L 148.023438 260.144531 L 113.464844 230.238281 Z M 127.269531 214.289062 " fill-opacity="1" fill-rule="nonzero"/></g></g></g><g fill="#ffffff" fill-opacity="1"><g transform="translate(94.631696, 190.87946)"><g><path d="M -3.574219 -0.667969 C -0.660156 -1.632812 0.363281 -3.355469 0.40625 -5.46875 C 0.441406 -7.296875 -0.503906 -8.847656 -2.511719 -8.886719 C -4.359375 -8.921875 -5.3125 -7.605469 -7.238281 -5.089844 C -8.636719 -3.257812 -9.195312 -2.398438 -10.363281 -2.421875 C -11.355469 -2.441406 -12 -3.21875 -11.976562 -4.507812 C -11.9375 -6.429688 -10.40625 -7.179688 -8.933594 -7.433594 L -9.359375 -8.644531 C -11.238281 -7.644531 -12.179688 -6.359375 -12.214844 -4.589844 C -12.246094 -2.847656 -11.417969 -1.570312 -9.855469 -1.542969 C -8.371094 -1.511719 -7.664062 -2.398438 -6.035156 -4.511719 C -4.28125 -6.730469 -3.371094 -8.046875 -2.050781 -8.019531 C -0.535156 -7.992188 0.195312 -6.941406 0.167969 -5.5625 C 0.128906 -3.582031 -1.640625 -2.132812 -4.132812 -1.878906 Z M -3.574219 -0.667969 "/></g></g></g><g fill="#ffffff" fill-opacity="1"><g transform="translate(95.209939, 177.162046)"><g><path d="M 0.175781 -1.035156 L 0.460938 -2.722656 C -0.792969 -2.84375 -1.390625 -2.914062 -2.46875 -3.097656 L -5.027344 -3.535156 L -4.828125 -4.703125 C -4.382812 -7.332031 -4.597656 -9.730469 -7.171875 -10.167969 C -9.746094 -10.605469 -10.742188 -8.414062 -11.1875 -5.785156 L -11.652344 -3.046875 C -10.398438 -2.925781 -9.800781 -2.855469 -8.71875 -2.671875 L -2.71875 -1.648438 C -1.636719 -1.464844 -1.050781 -1.335938 0.175781 -1.035156 Z M -5.265625 -3.574219 L -11.152344 -4.574219 L -10.953125 -5.726562 C -10.660156 -7.457031 -9.78125 -9.058594 -7.429688 -8.660156 C -5.078125 -8.257812 -4.773438 -6.457031 -5.070312 -4.726562 Z M -5.265625 -3.574219 "/></g></g></g><g fill="#ffffff" fill-opacity="1"><g transform="translate(97.866762, 163.55004)"><g><path d="M -11.082031 -4.71875 C -9.847656 -4.441406 -9.273438 -4.269531 -8.230469 -3.929688 L -2.441406 -2.042969 C -1.402344 -1.703125 -0.835938 -1.503906 0.324219 -1 L 2.511719 -7.699219 L 1.875 -8.367188 C 1.824219 -6.613281 1.582031 -5.621094 1.121094 -4.210938 L 0.601562 -2.613281 L -5.105469 -4.472656 L -4.808594 -5.386719 C -4.558594 -6.140625 -4.308594 -6.910156 -3.734375 -8.191406 L -4.246094 -8.359375 C -4.539062 -6.984375 -4.789062 -6.214844 -5.035156 -5.460938 L -5.332031 -4.546875 L -10.351562 -6.183594 L -9.929688 -7.480469 C -9.71875 -8.125 -9.179688 -9.492188 -8.296875 -10.546875 L -8.886719 -11.449219 Z M -11.082031 -4.71875 "/></g></g></g><g fill="#ffffff" fill-opacity="1"><g transform="translate(102.150029, 151.030349)"><g><path d="M 1.152344 -13.042969 C 3.457031 -11.101562 4.398438 -8.785156 3.1875 -6.457031 C 1.707031 -3.609375 -1.472656 -3.605469 -4.375 -5.113281 C -7.222656 -6.59375 -8.769531 -9.277344 -7.558594 -11.605469 C -6.679688 -13.296875 -4.847656 -13.507812 -2.941406 -13.042969 L -2.609375 -14.558594 C -4.902344 -14.601562 -6.699219 -13.777344 -7.773438 -11.714844 C -9.292969 -8.789062 -8.277344 -5.316406 -5.042969 -3.636719 C -1.808594 -1.953125 1.691406 -2.601562 3.414062 -5.917969 C 4.839844 -8.660156 3.765625 -11.144531 1.246094 -13.230469 Z M 1.152344 -13.042969 "/></g></g></g><g fill="#ffffff" fill-opacity="1"><g transform="translate(110.633413, 136.028369)"><g><path d="M -9.183594 -7.796875 C -8.101562 -7.140625 -7.597656 -6.816406 -6.703125 -6.183594 L -1.734375 -2.664062 C -0.839844 -2.03125 -0.367188 -1.660156 0.605469 -0.855469 L 1.597656 -2.25 C 0.515625 -2.90625 0.0078125 -3.230469 -0.882812 -3.863281 L -5.851562 -7.382812 C -6.746094 -8.015625 -7.21875 -8.390625 -8.195312 -9.191406 Z M -9.183594 -7.796875 "/></g></g></g><g fill="#ffffff" fill-opacity="1"><g transform="translate(115.440636, 129.378406)"><g><path d="M 4.675781 -7.511719 L -4.980469 -12.351562 L -6.171875 -11.042969 C -5.855469 -10.898438 -5.734375 -10.789062 -5.550781 -10.519531 L -0.25 -1.972656 C 0.046875 -1.476562 0.238281 -1.242188 0.503906 -0.554688 L 0.796875 -0.875 C 0.363281 -1.355469 0.210938 -1.65625 -0.101562 -2.160156 L -1.648438 -4.667969 L 1.058594 -7.640625 L 3.625 -6.359375 C 4.222656 -6.058594 4.503906 -5.941406 5.023438 -5.507812 L 6.285156 -6.894531 C 5.652344 -7.066406 5.316406 -7.191406 4.675781 -7.511719 Z M -1.785156 -4.875 L -5.5625 -10.953125 L 0.839844 -7.757812 Z M -1.785156 -4.875 "/></g></g></g><g fill="#ffffff" fill-opacity="1"><g transform="translate(125.390355, 119.005388)"><g><path d="M -6.742188 -9.984375 C -5.878906 -9.066406 -5.476562 -8.617188 -4.78125 -7.769531 L -0.9375 -3.050781 C -0.246094 -2.199219 0.109375 -1.714844 0.8125 -0.664062 L 5.953125 -4.851562 L 5.78125 -5.753906 C 4.789062 -4.308594 4.046875 -3.605469 2.894531 -2.667969 L 1.917969 -1.871094 L -3.644531 -8.699219 C -4.335938 -9.546875 -4.691406 -10.03125 -5.417969 -11.066406 Z M -6.742188 -9.984375 "/></g></g></g><g fill="#ffffff" fill-opacity="1"><g transform="translate(135.809142, 111.028926)"><g><path d="M -5.574219 -10.679688 C -4.820312 -9.664062 -4.472656 -9.175781 -3.882812 -8.253906 L -0.605469 -3.121094 C -0.015625 -2.199219 0.28125 -1.675781 0.886719 -0.566406 L 2.328125 -1.484375 C 1.570312 -2.5 1.222656 -2.988281 0.632812 -3.910156 L -2.644531 -9.042969 C -3.230469 -9.96875 -3.53125 -10.488281 -4.132812 -11.597656 Z M -5.574219 -10.679688 "/></g></g></g><g fill="#ffffff" fill-opacity="1"><g transform="translate(142.768941, 106.677507)"><g><path d="M 3.53125 -14.996094 L -4.910156 -10.953125 L -3.953125 -10.480469 C -3.007812 -11.496094 -2.003906 -12.078125 -1.410156 -12.363281 L -1.246094 -12.441406 L 2.554688 -4.5 C 3.027344 -3.511719 3.257812 -2.957031 3.722656 -1.78125 L 5.261719 -2.519531 C 4.636719 -3.617188 4.351562 -4.144531 3.878906 -5.132812 L 0.078125 -13.074219 L 0.242188 -13.152344 C 0.835938 -13.4375 1.917969 -13.855469 3.300781 -13.953125 Z M 3.53125 -14.996094 "/></g></g></g><g fill="#ffffff" fill-opacity="1"><g transform="translate(155.77265, 100.848491)"><g><path d="M -0.734375 -13.441406 C 0.363281 -14.671875 1.042969 -14.957031 1.421875 -15.671875 C 1.597656 -16.023438 1.464844 -16.609375 0.859375 -16.488281 L -0.847656 -13.5 Z M -2.515625 -11.78125 C -2.03125 -10.609375 -1.839844 -10.042969 -1.519531 -8.996094 L 0.265625 -3.171875 C 0.585938 -2.125 0.75 -1.546875 1.003906 -0.308594 L 7.742188 -2.375 L 7.921875 -3.277344 C 6.460938 -2.3125 5.507812 -1.941406 4.089844 -1.503906 L 2.480469 -1.011719 L 0.722656 -6.75 L 1.640625 -7.03125 C 2.402344 -7.261719 3.175781 -7.5 4.550781 -7.765625 L 4.394531 -8.28125 C 3.105469 -7.730469 2.332031 -7.492188 1.570312 -7.257812 L 0.652344 -6.976562 L -0.894531 -12.027344 L 0.410156 -12.425781 C 1.054688 -12.625 2.484375 -12.96875 3.855469 -12.855469 L 4.253906 -13.855469 Z M -2.515625 -11.78125 "/></g></g></g><g fill="#ffffff" fill-opacity="1"><g transform="translate(168.560654, 97.238024)"><g><path d="M 0.0507812 -3.632812 C 1.496094 -0.925781 3.367188 -0.210938 5.457031 -0.53125 C 7.265625 -0.804688 8.632812 -2 8.328125 -3.988281 C 8.050781 -5.8125 6.589844 -6.53125 3.785156 -8 C 1.742188 -9.066406 0.800781 -9.46875 0.621094 -10.625 C 0.472656 -11.605469 1.128906 -12.371094 2.40625 -12.566406 C 4.304688 -12.855469 5.304688 -11.476562 5.804688 -10.066406 L 6.925781 -10.691406 C 5.621094 -12.375 4.191406 -13.082031 2.441406 -12.816406 C 0.722656 -12.554688 -0.394531 -11.519531 -0.15625 -9.976562 C 0.0664062 -8.507812 1.058594 -7.960938 3.421875 -6.714844 C 5.902344 -5.363281 7.355469 -4.691406 7.554688 -3.382812 C 7.785156 -1.886719 6.875 -0.988281 5.511719 -0.78125 C 3.554688 -0.480469 1.820312 -1.976562 1.148438 -4.394531 Z M 0.0507812 -3.632812 "/></g></g></g><g fill="#ffffff" fill-opacity="1"><g transform="translate(182.278104, 95.570183)"><g/></g></g><g fill="#ffffff" fill-opacity="1"><g transform="translate(190.963552, 95.420691)"><g><path d="M 0.925781 -3.515625 C 1.675781 -0.539062 3.320312 0.605469 5.425781 0.800781 C 7.246094 0.96875 8.859375 0.136719 9.042969 -1.863281 C 9.210938 -3.703125 7.96875 -4.75 5.601562 -6.851562 C 3.875 -8.378906 3.058594 -8.996094 3.164062 -10.164062 C 3.253906 -11.148438 4.078125 -11.734375 5.363281 -11.617188 C 7.273438 -11.441406 7.910156 -9.863281 8.0625 -8.371094 L 9.296875 -8.710938 C 8.4375 -10.65625 7.222656 -11.6875 5.457031 -11.851562 C 3.726562 -12.007812 2.394531 -11.273438 2.25 -9.71875 C 2.113281 -8.242188 2.945312 -7.472656 4.9375 -5.691406 C 7.019531 -3.78125 8.269531 -2.777344 8.148438 -1.464844 C 8.007812 0.0429688 6.910156 0.695312 5.535156 0.570312 C 3.5625 0.386719 2.246094 -1.480469 2.175781 -3.988281 Z M 0.925781 -3.515625 "/></g></g></g><g fill="#ffffff" fill-opacity="1"><g transform="translate(204.593619, 96.975872)"><g><path d="M 8.832031 0.539062 L 8.496094 -10.253906 L 6.78125 -10.679688 C 6.800781 -10.335938 6.761719 -10.175781 6.613281 -9.886719 L 1.617188 -1.160156 C 1.324219 -0.660156 1.207031 -0.378906 0.726562 0.179688 L 1.148438 0.285156 C 1.363281 -0.324219 1.554688 -0.601562 1.855469 -1.117188 L 3.324219 -3.671875 L 7.226562 -2.703125 L 7.316406 0.164062 C 7.335938 0.832031 7.367188 1.136719 7.234375 1.796875 L 9.054688 2.25 C 8.90625 1.609375 8.851562 1.257812 8.832031 0.539062 Z M 3.4375 -3.890625 L 6.992188 -10.101562 L 7.222656 -2.949219 Z M 3.4375 -3.890625 "/></g></g></g><g fill="#ffffff" fill-opacity="1"><g transform="translate(218.43741, 100.755239)"><g><path d="M 5.347656 -10.769531 C 5.398438 -10.113281 5.394531 -9.757812 5.292969 -9.050781 L 3.96875 1.671875 L 5.597656 2.359375 C 5.628906 2.011719 5.695312 1.859375 5.886719 1.597656 L 12.171875 -6.253906 C 12.539062 -6.699219 12.695312 -6.957031 13.253906 -7.4375 L 12.839844 -7.613281 C 12.550781 -7.035156 12.300781 -6.796875 11.941406 -6.332031 L 5.480469 1.753906 L 6.742188 -8.4375 C 6.828125 -9.105469 6.84375 -9.40625 7.078125 -10.039062 Z M 5.347656 -10.769531 "/></g></g></g><g fill="#ffffff" fill-opacity="1"><g transform="translate(231.537703, 106.431193)"><g><path d="M 6.195312 4.421875 C 9.40625 6.527344 13.246094 5.921875 15.269531 2.835938 C 17.285156 -0.234375 16.316406 -4.011719 13.105469 -6.117188 C 9.894531 -8.222656 6.058594 -7.597656 4.042969 -4.523438 C 2.019531 -1.4375 2.984375 2.316406 6.195312 4.421875 Z M 6.328125 4.21875 C 3.667969 2.476562 3.660156 -0.988281 5.398438 -3.636719 C 7.125 -6.269531 10.3125 -7.660156 12.972656 -5.914062 C 15.632812 -4.171875 15.640625 -0.683594 13.914062 1.949219 C 12.179688 4.59375 8.984375 5.964844 6.328125 4.21875 Z M 6.328125 4.21875 "/></g></g></g><g fill="#ffffff" fill-opacity="1"><g transform="translate(247.408662, 117.560969)"><g><path d="M 13.695312 -1.570312 C 14.273438 -1.765625 14.558594 -1.867188 15.242188 -2.019531 L 14.953125 -2.296875 C 14.375 -2.042969 14.121094 -1.953125 13.5 -1.738281 L 8.222656 0.0664062 L 9.75 -5.324219 C 9.917969 -5.933594 9.996094 -6.234375 10.261719 -6.789062 L 8.839844 -8.148438 C 8.78125 -7.457031 8.714844 -7.105469 8.539062 -6.488281 L 6.863281 -0.59375 L 5.328125 1.007812 C 4.570312 1.800781 4.144531 2.222656 3.195312 3.058594 L 4.429688 4.242188 C 5.238281 3.269531 5.640625 2.828125 6.398438 2.035156 L 7.933594 0.433594 Z M 13.695312 -1.570312 "/></g></g></g><g fill="#ffffff" fill-opacity="1"><g transform="translate(257.73513, 127.923111)"><g><path d="M 6.546875 5.949219 L 13.046875 -2.671875 L 11.972656 -4.082031 C 11.777344 -3.796875 11.644531 -3.699219 11.347656 -3.566406 L 1.988281 0.109375 C 1.445312 0.3125 1.179688 0.460938 0.453125 0.597656 L 0.71875 0.941406 C 1.265625 0.601562 1.589844 0.503906 2.144531 0.289062 L 4.890625 -0.78125 L 7.324219 2.417969 L 5.601562 4.710938 C 5.195312 5.242188 5.035156 5.5 4.515625 5.933594 L 5.652344 7.425781 C 5.933594 6.832031 6.117188 6.523438 6.546875 5.949219 Z M 5.117188 -0.878906 L 11.777344 -3.496094 L 7.480469 2.222656 Z M 5.117188 -0.878906 "/></g></g></g><g fill="#ffffff" fill-opacity="1"><g transform="translate(266.179921, 139.501744)"><g><path d="M 6.269531 5.722656 C 7.519531 4.238281 7.617188 2.949219 7.214844 1.683594 C 8.394531 3.554688 9.890625 4.730469 11.890625 3.667969 C 14.191406 2.441406 13.644531 0.101562 12.390625 -2.257812 L 11.089844 -4.707031 C 10.019531 -4.035156 9.503906 -3.726562 8.535156 -3.214844 L 3.160156 -0.355469 C 2.191406 0.160156 1.648438 0.414062 0.492188 0.925781 L 1.296875 2.4375 C 2.367188 1.765625 2.882812 1.457031 3.847656 0.945312 L 6.140625 -0.273438 L 6.394531 0.203125 C 7.117188 1.566406 7.15625 2.597656 5.472656 4.445312 C 3.964844 6.082031 3.921875 7.375 5.085938 9.5625 L 5.285156 9.457031 C 4.628906 8.226562 4.855469 7.339844 6.269531 5.722656 Z M 6.351562 -0.386719 L 11.621094 -3.191406 L 12.171875 -2.15625 C 12.996094 -0.609375 13.277344 1.195312 11.171875 2.316406 C 9.066406 3.4375 7.726562 2.195312 6.902344 0.644531 Z M 6.351562 -0.386719 "/></g></g></g><g fill="#ffffff" fill-opacity="1"><g transform="translate(273.187626, 153.452095)"><g><path d="M 0.332031 0.996094 L 1.335938 4.015625 C 2.535156 7.628906 5.324219 9.121094 8.953125 7.914062 C 12.738281 6.65625 13.898438 3.773438 12.722656 0.230469 L 11.71875 -2.789062 C 10.550781 -2.304688 9.992188 -2.085938 8.953125 -1.742188 L 3.171875 0.179688 C 2.132812 0.523438 1.554688 0.683594 0.332031 0.996094 Z M 1.546875 3.894531 L 1.058594 2.429688 L 11.992188 -1.203125 L 12.480469 0.261719 C 13.316406 2.78125 12.144531 5.148438 8.441406 6.378906 C 4.882812 7.5625 2.386719 6.414062 1.546875 3.894531 Z M 1.546875 3.894531 "/></g></g></g><g fill="#ffffff" fill-opacity="1"><g transform="translate(277.676458, 168.287078)"><g><path d="M 12.007812 -0.941406 C 10.785156 -0.613281 10.195312 -0.5 9.117188 -0.320312 L 3.109375 0.683594 C 2.03125 0.863281 1.433594 0.945312 0.171875 1.035156 L 1.335938 7.988281 L 2.203125 8.285156 C 1.441406 6.710938 1.199219 5.714844 0.953125 4.25 L 0.675781 2.59375 L 6.59375 1.605469 L 6.753906 2.550781 C 6.882812 3.335938 7.015625 4.136719 7.097656 5.535156 L 7.632812 5.449219 C 7.253906 4.097656 7.121094 3.296875 6.988281 2.511719 L 6.832031 1.566406 L 12.039062 0.695312 L 12.265625 2.042969 C 12.375 2.707031 12.527344 4.171875 12.234375 5.515625 L 13.175781 6.042969 Z M 12.007812 -0.941406 "/></g></g></g><g fill="#ffffff" fill-opacity="1"><g transform="translate(279.574177, 181.435907)"><g><path d="M 3.597656 0.53125 C 0.722656 1.605469 -0.234375 3.363281 -0.195312 5.480469 C -0.15625 7.308594 0.847656 8.820312 2.855469 8.78125 C 4.699219 8.746094 5.605469 7.394531 7.429688 4.808594 C 8.757812 2.921875 9.28125 2.039062 10.449219 2.015625 C 11.441406 2 12.117188 2.75 12.140625 4.039062 C 12.179688 5.960938 10.679688 6.769531 9.214844 7.082031 L 9.6875 8.273438 C 11.527344 7.203125 12.417969 5.878906 12.382812 4.109375 C 12.347656 2.371094 11.46875 1.128906 9.910156 1.15625 C 8.425781 1.1875 7.753906 2.101562 6.203125 4.273438 C 4.539062 6.558594 3.679688 7.910156 2.359375 7.9375 C 0.84375 7.964844 0.0742188 6.945312 0.046875 5.566406 C 0.0078125 3.585938 1.71875 2.066406 4.203125 1.71875 Z M 3.597656 0.53125 "/></g></g></g><g fill="#ffffff" fill-opacity="1"><g transform="translate(144.006147, 177.332648)"><g><path d="M 29.558594 -11.421875 C 29.558594 -19.046875 23.53125 -23.417969 15.648438 -23.417969 C 7.710938 -23.417969 1.714844 -19.046875 1.714844 -11.421875 C 1.714844 -3.769531 7.710938 0.570312 15.648438 0.570312 C 16.25 0.570312 16.847656 0.542969 17.449219 0.484375 C 17.535156 0.742188 17.648438 0.972656 17.792969 1.199219 C 19.132812 3.570312 22.101562 3.914062 24.875 3.914062 L 24.875 3.199219 C 22.53125 3.199219 21.273438 2.171875 20.304688 0.429688 C 20.246094 0.3125 20.160156 0.199219 20.074219 0.0585938 C 25.671875 -1.285156 29.558594 -5.28125 29.558594 -11.421875 Z M 19.21875 -1.171875 C 18.449219 -2.113281 17.417969 -2.796875 15.90625 -2.796875 C 14.277344 -2.796875 13.277344 -1.886719 12.566406 -0.855469 C 9.453125 -2.484375 8.054688 -6.738281 8.054688 -11.421875 C 8.054688 -17.417969 10.367188 -22.730469 15.648438 -22.730469 C 20.875 -22.730469 23.21875 -17.417969 23.21875 -11.421875 C 23.21875 -6.996094 21.960938 -3 19.21875 -1.171875 Z M 15.648438 -0.113281 C 14.734375 -0.113281 13.90625 -0.285156 13.164062 -0.570312 C 13.59375 -1.34375 14.476562 -2.085938 15.421875 -2.085938 C 16.421875 -2.085938 16.734375 -1.257812 17.132812 -0.257812 C 16.675781 -0.171875 16.164062 -0.113281 15.648438 -0.113281 Z M 15.648438 -0.113281 "/></g></g></g><g fill="#ffffff" fill-opacity="1"><g transform="translate(175.266558, 177.332648)"><g><path d="M 1.714844 -22.847656 C 1.96875 -20.789062 2.054688 -19.417969 2.054688 -16.476562 L 2.054688 -9.710938 C 2.054688 -1.457031 6.597656 0.570312 12.765625 0.570312 C 18.304688 0.570312 20.703125 -2.226562 20.703125 -9.710938 L 20.703125 -16.476562 C 20.703125 -19.417969 20.816406 -20.789062 21.046875 -22.847656 L 19.675781 -22.847656 C 19.90625 -20.789062 20.019531 -19.417969 20.019531 -16.476562 L 20.019531 -9.710938 C 20.019531 -2.855469 17.960938 -0.570312 13.820312 -0.570312 C 9.308594 -0.570312 7.96875 -3.140625 7.96875 -9.710938 L 7.96875 -16.476562 C 7.96875 -19.417969 8.054688 -20.789062 8.308594 -22.847656 Z M 1.714844 -22.847656 "/></g></g></g><g fill="#ffffff" fill-opacity="1"><g transform="translate(198.019565, 177.332648)"><g><path d="M 19.5625 -3.597656 L 14.308594 -22.847656 L 7.28125 -22.847656 C 7.566406 -21.902344 7.480469 -21.445312 7.253906 -20.53125 L 2.597656 -3.199219 C 2.3125 -2.140625 2.140625 -1.484375 1.429688 0 L 2.683594 0 C 2.769531 -1.398438 3.027344 -2.140625 3.3125 -3.226562 L 4.597656 -8.082031 L 12.050781 -8.082031 L 13.277344 -3.597656 C 13.679688 -2.140625 13.851562 -1.511719 13.9375 0 L 20.960938 0 C 20.332031 -1.140625 19.988281 -1.96875 19.5625 -3.597656 Z M 4.796875 -8.765625 L 8.28125 -21.816406 L 11.851562 -8.765625 Z M 4.796875 -8.765625 "/></g></g></g><g fill="#ffffff" fill-opacity="1"><g transform="translate(220.401446, 177.332648)"><g><path d="M 2 -22.847656 C 2.257812 -20.789062 2.339844 -19.417969 2.339844 -16.476562 L 2.339844 -6.367188 C 2.339844 -3.425781 2.257812 -2.054688 2 0 L 8.597656 0 C 8.339844 -2.054688 8.253906 -3.425781 8.253906 -6.367188 L 8.253906 -16.476562 C 8.253906 -19.417969 8.339844 -20.789062 8.597656 -22.847656 Z M 2 -22.847656 "/></g></g></g><g fill="#ffffff" fill-opacity="1"><g transform="translate(119.10111, 208.582251)"><g><path d="M 17.402344 -3.199219 L 12.726562 -20.320312 L 6.476562 -20.320312 C 6.730469 -19.484375 6.65625 -19.078125 6.453125 -18.265625 L 2.3125 -2.84375 C 2.058594 -1.90625 1.90625 -1.320312 1.269531 0 L 2.386719 0 C 2.464844 -1.246094 2.691406 -1.90625 2.945312 -2.871094 L 4.089844 -7.1875 L 10.71875 -7.1875 L 11.8125 -3.199219 C 12.167969 -1.90625 12.320312 -1.347656 12.394531 0 L 18.644531 0 C 18.085938 -1.015625 17.78125 -1.753906 17.402344 -3.199219 Z M 4.269531 -7.796875 L 7.367188 -19.40625 L 10.542969 -7.796875 Z M 4.269531 -7.796875 "/></g></g></g><g fill="#ffffff" fill-opacity="1"><g transform="translate(139.010487, 208.582251)"><g><path d="M 1.777344 0 L 2.921875 0 C 2.691406 -1.828125 2.617188 -3.046875 2.617188 -5.664062 L 2.617188 -19.050781 L 2.792969 -19.027344 L 12.675781 0 L 19.027344 0 C 18.796875 -1.828125 18.722656 -3.046875 18.722656 -5.664062 L 18.722656 -14.65625 C 18.722656 -17.273438 18.796875 -18.492188 19.027344 -20.320312 L 17.882812 -20.320312 C 18.085938 -18.492188 18.1875 -17.273438 18.1875 -14.65625 L 18.1875 -1.269531 L 18.011719 -1.296875 L 8.128906 -20.320312 L 1.777344 -20.320312 C 2.007812 -18.492188 2.082031 -17.273438 2.082031 -14.65625 L 2.082031 -5.664062 C 2.082031 -3.046875 2.007812 -1.828125 1.777344 0 Z M 1.777344 0 "/></g></g></g><g fill="#ffffff" fill-opacity="1"><g transform="translate(159.80868, 208.582251)"><g><path d="M 20.296875 -20.320312 L 0.507812 -20.320312 L 2.183594 -17.933594 C 4.242188 -19.457031 5.84375 -19.710938 7.441406 -19.710938 L 7.773438 -19.710938 L 7.773438 -5.664062 C 7.773438 -3.046875 7.695312 -1.828125 7.46875 0 L 13.335938 0 C 13.109375 -1.828125 13.03125 -3.046875 13.03125 -5.664062 L 13.03125 -19.710938 L 13.363281 -19.710938 C 14.960938 -19.710938 16.585938 -19.457031 18.621094 -17.933594 Z M 20.296875 -20.320312 "/></g></g></g><g fill="#ffffff" fill-opacity="1"><g transform="translate(180.606874, 208.582251)"><g><path d="M 1.777344 -20.320312 C 2.007812 -18.492188 2.082031 -17.273438 2.082031 -14.65625 L 2.082031 -5.664062 C 2.082031 -3.046875 2.007812 -1.828125 1.777344 0 L 7.644531 0 C 7.417969 -1.828125 7.339844 -3.046875 7.339844 -5.664062 L 7.339844 -14.65625 C 7.339844 -17.273438 7.417969 -18.492188 7.644531 -20.320312 Z M 1.777344 -20.320312 "/></g></g></g><g fill="#ffffff" fill-opacity="1"><g transform="translate(190.02828, 208.582251)"><g><path d="M 26.292969 -10.160156 C 26.292969 -16.945312 20.933594 -20.828125 13.921875 -20.828125 C 6.859375 -20.828125 1.523438 -16.945312 1.523438 -10.160156 C 1.523438 -3.351562 6.859375 0.507812 13.921875 0.507812 C 14.453125 0.507812 14.988281 0.484375 15.519531 0.433594 C 15.597656 0.660156 15.699219 0.863281 15.824219 1.066406 C 17.019531 3.175781 19.660156 3.480469 22.125 3.480469 L 22.125 2.84375 C 20.042969 2.84375 18.925781 1.929688 18.0625 0.382812 C 18.011719 0.28125 17.933594 0.179688 17.859375 0.0507812 C 22.835938 -1.144531 26.292969 -4.699219 26.292969 -10.160156 Z M 17.097656 -1.042969 C 16.410156 -1.878906 15.496094 -2.488281 14.148438 -2.488281 C 12.703125 -2.488281 11.8125 -1.675781 11.175781 -0.761719 C 8.410156 -2.210938 7.164062 -5.996094 7.164062 -10.160156 C 7.164062 -15.496094 9.222656 -20.21875 13.921875 -20.21875 C 18.570312 -20.21875 20.652344 -15.496094 20.652344 -10.160156 C 20.652344 -6.222656 19.535156 -2.667969 17.097656 -1.042969 Z M 13.921875 -0.101562 C 13.109375 -0.101562 12.371094 -0.253906 11.710938 -0.507812 C 12.089844 -1.195312 12.878906 -1.855469 13.71875 -1.855469 C 14.605469 -1.855469 14.886719 -1.117188 15.242188 -0.230469 C 14.835938 -0.152344 14.378906 -0.101562 13.921875 -0.101562 Z M 13.921875 -0.101562 "/></g></g></g><g fill="#ffffff" fill-opacity="1"><g transform="translate(217.835383, 208.582251)"><g><path d="M 1.523438 -20.320312 C 1.753906 -18.492188 1.828125 -17.273438 1.828125 -14.65625 L 1.828125 -8.636719 C 1.828125 -1.296875 5.867188 0.507812 11.355469 0.507812 C 16.28125 0.507812 18.417969 -1.980469 18.417969 -8.636719 L 18.417969 -14.65625 C 18.417969 -17.273438 18.519531 -18.492188 18.722656 -20.320312 L 17.503906 -20.320312 C 17.707031 -18.492188 17.808594 -17.273438 17.808594 -14.65625 L 17.808594 -8.636719 C 17.808594 -2.539062 15.976562 -0.507812 12.292969 -0.507812 C 8.28125 -0.507812 7.085938 -2.792969 7.085938 -8.636719 L 7.085938 -14.65625 C 7.085938 -17.273438 7.164062 -18.492188 7.390625 -20.320312 Z M 1.523438 -20.320312 "/></g></g></g><g fill="#ffffff" fill-opacity="1"><g transform="translate(238.074888, 208.582251)"><g><path d="M 1.777344 -20.320312 C 2.007812 -18.492188 2.109375 -17.273438 2.109375 -14.65625 L 2.109375 -5.664062 C 2.109375 -3.046875 2.007812 -1.828125 1.777344 0 L 16.027344 0 L 17.070312 -2.3125 C 13.386719 -0.789062 11.988281 -0.609375 9.246094 -0.609375 L 7.339844 -0.609375 L 7.339844 -10.363281 L 8.5625 -10.363281 C 9.90625 -10.363281 11.277344 -10.363281 13.640625 -10.109375 L 13.640625 -11.226562 C 11.277344 -10.972656 9.90625 -10.972656 8.5625 -10.972656 L 7.339844 -10.972656 L 7.339844 -19.710938 L 9.449219 -19.710938 C 11.023438 -19.710938 12.878906 -19.457031 14.9375 -17.933594 L 16.585938 -20.320312 Z M 1.777344 -20.320312 "/></g></g></g><g clip-path="url(#1d68d736af)"><g clip-path="url(#4abe038094)"><g clip-path="url(#68e860de91)"><path fill="#72211d" d="M 215.675781 136.363281 L 229.800781 118.402344 L 261.582031 143.394531 L 247.453125 161.355469 Z M 215.675781 136.363281 " fill-opacity="1" fill-rule="nonzero"/></g></g></g></svg>